# MagicaVoxel @ Ephtracy

# group
o 

# material
mtllib restaurant-2.mtl
usemtl palette

# normals
vn 0 0 -1
vn 0 0 1
vn -1 0 0
vn 1 0 0
vn 0 -1 0
vn 0 1 0

# texcoords
vt 0.306641 0.5
vt 0.916016 0.5
vt 0.947266 0.5
vt 0.978516 0.5

# verts
v -0.6 0.3 6
v -0.5 0.3 6
v -0.4 0.3 6
v 0.1 0.3 6
v 0.2 0.3 6
v 0.3 0.3 6
v -0.4 1 6
v 0.1 1 6
v -0.5 1.1 6
v 0.2 1.1 6
v -0.6 1.6 6
v -0.5 1.6 6
v 0.2 1.6 6
v 0.3 1.6 6
v -0.4 0.9 6.1
v 0.1 0.9 6.1
v -0.4 1 6.1
v 0.1 1 6.1
v -0.4 1.1 6.1
v 0.1 1.1 6.1
v -0.4 1.2 6.1
v 0.1 1.2 6.1
v -0.5 0.9 6.3
v -0.4 0.9 6.3
v 0.1 0.9 6.3
v 0.2 0.9 6.3
v -0.5 1 6.3
v -0.4 1 6.3
v 0.1 1 6.3
v 0.2 1 6.3
v -0.5 1.1 6.3
v -0.4 1.1 6.3
v 0.1 1.1 6.3
v 0.2 1.1 6.3
v -0.5 1.2 6.3
v -0.4 1.2 6.3
v 0.1 1.2 6.3
v 0.2 1.2 6.3
v -0.6 0.3 6.7
v -0.5 0.3 6.7
v 0.2 0.3 6.7
v 0.3 0.3 6.7
v -0.6 1 6.7
v -0.5 1 6.7
v 0.2 1 6.7
v 0.3 1 6.7
v -0.6 1.1 6.7
v -0.5 1.1 6.7
v 0.2 1.1 6.7
v 0.3 1.1 6.7
v -0.6 1.5 6.7
v -0.5 1.5 6.7
v 0.2 1.5 6.7
v 0.3 1.5 6.7
v -0.6 1.6 6.7
v -0.5 1.6 6.7
v 0.2 1.6 6.7
v 0.3 1.6 6.7
v -0.6 2.1 6.7
v -0.5 2.1 6.7
v 0.2 2.1 6.7
v 0.3 2.1 6.7
v -0.5 0.3 6.8
v -0.4 0.3 6.8
v 0.1 0.3 6.8
v 0.2 0.3 6.8
v -0.4 0.9 6.8
v 0.1 0.9 6.8
v -0.5 1 6.8
v -0.4 1 6.8
v 0.1 1 6.8
v 0.2 1 6.8
v -0.5 1.1 6.8
v -0.4 1.1 6.8
v 0.1 1.1 6.8
v 0.2 1.1 6.8
v -0.4 1.2 6.8
v 0.1 1.2 6.8
v -0.4 1.3 6.8
v -0.3 1.3 6.8
v -0.2 1.3 6.8
v -0.1 1.3 6.8
v -5.96046e-008 1.3 6.8
v 0.1 1.3 6.8
v -0.2 1.8 6.8
v -0.1 1.8 6.8
v -0.2 1.9 6.8
v -0.1 1.9 6.8
v -0.4 2 6.8
v -0.3 2 6.8
v -0.2 2 6.8
v -0.1 2 6.8
v -5.96046e-008 2 6.8
v 0.1 2 6.8
v -0.5 2.1 6.8
v 0.2 2.1 6.8
v -0.5 0.3 6.1
v -0.4 0.3 6.1
v 0.1 0.3 6.1
v 0.2 0.3 6.1
v -0.4 0.9 6.1
v 0.1 0.9 6.1
v -0.5 1 6.1
v -0.4 1 6.1
v 0.1 1 6.1
v 0.2 1 6.1
v -0.6 1.1 6.1
v -0.5 1.1 6.1
v 0.2 1.1 6.1
v 0.3 1.1 6.1
v -0.6 1.5 6.1
v -0.5 1.5 6.1
v 0.2 1.5 6.1
v 0.3 1.5 6.1
v -0.6 0.3 6.2
v -0.5 0.3 6.2
v 0.2 0.3 6.2
v 0.3 0.3 6.2
v -0.6 1 6.2
v -0.5 1 6.2
v 0.2 1 6.2
v 0.3 1 6.2
v -0.5 0.9 6.6
v -0.4 0.9 6.6
v 0.1 0.9 6.6
v 0.2 0.9 6.6
v -0.5 1 6.6
v -0.4 1 6.6
v 0.1 1 6.6
v 0.2 1 6.6
v -0.5 1.1 6.6
v -0.4 1.1 6.6
v 0.1 1.1 6.6
v 0.2 1.1 6.6
v -0.5 1.2 6.6
v -0.4 1.2 6.6
v 0.1 1.2 6.6
v 0.2 1.2 6.6
v -0.4 0.9 6.8
v 0.1 0.9 6.8
v -0.4 1 6.8
v 0.1 1 6.8
v -0.6 1.1 6.8
v -0.5 1.1 6.8
v 0.2 1.1 6.8
v 0.3 1.1 6.8
v -0.6 2.1 6.8
v -0.5 2.1 6.8
v 0.2 2.1 6.8
v 0.3 2.1 6.8
v -0.6 0.3 6.9
v -0.5 0.3 6.9
v -0.4 0.3 6.9
v 0.1 0.3 6.9
v 0.2 0.3 6.9
v 0.3 0.3 6.9
v -0.4 1 6.9
v 0.1 1 6.9
v -0.6 1.1 6.9
v -0.5 1.1 6.9
v 0.2 1.1 6.9
v 0.3 1.1 6.9
v -0.4 1.3 6.9
v -0.3 1.3 6.9
v -0.2 1.3 6.9
v -0.1 1.3 6.9
v -5.96046e-008 1.3 6.9
v 0.1 1.3 6.9
v -0.2 1.8 6.9
v -0.1 1.8 6.9
v -0.2 1.9 6.9
v -0.1 1.9 6.9
v -0.4 2 6.9
v -0.3 2 6.9
v -0.2 2 6.9
v -0.1 2 6.9
v -5.96046e-008 2 6.9
v 0.1 2 6.9
v -0.5 2.1 6.9
v 0.2 2.1 6.9
v -0.6 0.3 6
v -0.6 1.6 6
v -0.6 1.1 6.1
v -0.6 1.5 6.1
v -0.6 0.3 6.2
v -0.6 1 6.2
v -0.6 0.3 6.7
v -0.6 1 6.7
v -0.6 1.1 6.7
v -0.6 1.5 6.7
v -0.6 1.6 6.7
v -0.6 2.1 6.7
v -0.6 1.1 6.8
v -0.6 2.1 6.8
v -0.6 0.3 6.9
v -0.6 1.1 6.9
v -0.5 0.9 6.3
v -0.5 1 6.3
v -0.5 1.1 6.3
v -0.5 1.2 6.3
v -0.5 0.9 6.6
v -0.5 1 6.6
v -0.5 1.1 6.6
v -0.5 1.2 6.6
v -0.5 1.1 6.8
v -0.5 2.1 6.8
v -0.5 1.1 6.9
v -0.5 2.1 6.9
v -0.4 0.9 6.1
v -0.4 1 6.1
v -0.4 1.1 6.1
v -0.4 1.2 6.1
v -0.4 0.9 6.3
v -0.4 1 6.3
v -0.4 1.1 6.3
v -0.4 1.2 6.3
v -0.4 0.9 6.6
v -0.4 1 6.6
v -0.4 1.1 6.6
v -0.4 1.2 6.6
v -0.4 0.9 6.8
v -0.4 1 6.8
v -0.4 1.1 6.8
v -0.4 1.2 6.8
v -0.3 1.3 6.8
v -0.3 2 6.8
v -0.3 1.3 6.9
v -0.3 2 6.9
v -0.1 1.3 6.8
v -0.1 1.8 6.8
v -0.1 1.9 6.8
v -0.1 2 6.8
v -0.1 1.3 6.9
v -0.1 1.8 6.9
v -0.1 1.9 6.9
v -0.1 2 6.9
v 0.1 0.3 6
v 0.1 1 6
v 0.1 0.3 6.1
v 0.1 0.9 6.1
v 0.1 1 6.1
v 0.1 0.3 6.8
v 0.1 0.9 6.8
v 0.1 1 6.8
v 0.1 1.3 6.8
v 0.1 2 6.8
v 0.1 0.3 6.9
v 0.1 1 6.9
v 0.1 1.3 6.9
v 0.1 2 6.9
v 0.2 1.1 6
v 0.2 1.6 6
v 0.2 0.3 6.1
v 0.2 1 6.1
v 0.2 1.1 6.1
v 0.2 1.5 6.1
v 0.2 0.3 6.2
v 0.2 1 6.2
v 0.2 0.3 6.7
v 0.2 1 6.7
v 0.2 1.1 6.7
v 0.2 1.5 6.7
v 0.2 1.6 6.7
v 0.2 2.1 6.7
v 0.2 0.3 6.8
v 0.2 1 6.8
v 0.2 1.1 6.8
v 0.2 2.1 6.8
v -0.5 1.1 6
v -0.5 1.6 6
v -0.5 0.3 6.1
v -0.5 1 6.1
v -0.5 1.1 6.1
v -0.5 1.5 6.1
v -0.5 0.3 6.2
v -0.5 1 6.2
v -0.5 0.3 6.7
v -0.5 1 6.7
v -0.5 1.1 6.7
v -0.5 1.5 6.7
v -0.5 1.6 6.7
v -0.5 2.1 6.7
v -0.5 0.3 6.8
v -0.5 1 6.8
v -0.5 1.1 6.8
v -0.5 2.1 6.8
v -0.4 0.3 6
v -0.4 1 6
v -0.4 0.3 6.1
v -0.4 0.9 6.1
v -0.4 1 6.1
v -0.4 0.3 6.8
v -0.4 0.9 6.8
v -0.4 1 6.8
v -0.4 1.3 6.8
v -0.4 2 6.8
v -0.4 0.3 6.9
v -0.4 1 6.9
v -0.4 1.3 6.9
v -0.4 2 6.9
v -0.2 1.3 6.8
v -0.2 1.8 6.8
v -0.2 1.9 6.8
v -0.2 2 6.8
v -0.2 1.3 6.9
v -0.2 1.8 6.9
v -0.2 1.9 6.9
v -0.2 2 6.9
v -5.96046e-008 1.3 6.8
v -5.96046e-008 2 6.8
v -5.96046e-008 1.3 6.9
v -5.96046e-008 2 6.9
v 0.1 0.9 6.1
v 0.1 1 6.1
v 0.1 1.1 6.1
v 0.1 1.2 6.1
v 0.1 0.9 6.3
v 0.1 1 6.3
v 0.1 1.1 6.3
v 0.1 1.2 6.3
v 0.1 0.9 6.6
v 0.1 1 6.6
v 0.1 1.1 6.6
v 0.1 1.2 6.6
v 0.1 0.9 6.8
v 0.1 1 6.8
v 0.1 1.1 6.8
v 0.1 1.2 6.8
v 0.2 0.9 6.3
v 0.2 1 6.3
v 0.2 1.1 6.3
v 0.2 1.2 6.3
v 0.2 0.9 6.6
v 0.2 1 6.6
v 0.2 1.1 6.6
v 0.2 1.2 6.6
v 0.2 1.1 6.8
v 0.2 2.1 6.8
v 0.2 1.1 6.9
v 0.2 2.1 6.9
v 0.3 0.3 6
v 0.3 1.6 6
v 0.3 1.1 6.1
v 0.3 1.5 6.1
v 0.3 0.3 6.2
v 0.3 1 6.2
v 0.3 0.3 6.7
v 0.3 1 6.7
v 0.3 1.1 6.7
v 0.3 1.5 6.7
v 0.3 1.6 6.7
v 0.3 2.1 6.7
v 0.3 1.1 6.8
v 0.3 2.1 6.8
v 0.3 0.3 6.9
v 0.3 1.1 6.9
v -0.6 0.3 6
v -0.6 0.3 6.2
v -0.6 0.3 6.7
v -0.6 0.3 6.9
v -0.5 0.3 6
v -0.5 0.3 6.1
v -0.5 0.3 6.2
v -0.5 0.3 6.7
v -0.5 0.3 6.8
v -0.5 0.3 6.9
v -0.4 0.3 6
v -0.4 0.3 6.1
v -0.4 0.3 6.8
v -0.4 0.3 6.9
v 0.1 0.3 6
v 0.1 0.3 6.1
v 0.1 0.3 6.8
v 0.1 0.3 6.9
v 0.2 0.3 6
v 0.2 0.3 6.1
v 0.2 0.3 6.2
v 0.2 0.3 6.7
v 0.2 0.3 6.8
v 0.2 0.3 6.9
v 0.3 0.3 6
v 0.3 0.3 6.2
v 0.3 0.3 6.7
v 0.3 0.3 6.9
v -0.5 0.9 6.3
v -0.5 0.9 6.6
v -0.4 0.9 6.1
v -0.4 0.9 6.3
v -0.4 0.9 6.6
v -0.4 0.9 6.8
v 0.1 0.9 6.1
v 0.1 0.9 6.3
v 0.1 0.9 6.6
v 0.1 0.9 6.8
v 0.2 0.9 6.3
v 0.2 0.9 6.6
v -0.6 1 6.2
v -0.6 1 6.7
v -0.5 1 6.1
v -0.5 1 6.2
v -0.5 1 6.3
v -0.5 1 6.6
v -0.5 1 6.7
v -0.5 1 6.8
v -0.4 1 6
v -0.4 1 6.1
v -0.4 1 6.3
v -0.4 1 6.6
v -0.4 1 6.8
v -0.4 1 6.9
v 0.1 1 6
v 0.1 1 6.1
v 0.1 1 6.3
v 0.1 1 6.6
v 0.1 1 6.8
v 0.1 1 6.9
v 0.2 1 6.1
v 0.2 1 6.2
v 0.2 1 6.3
v 0.2 1 6.6
v 0.2 1 6.7
v 0.2 1 6.8
v 0.3 1 6.2
v 0.3 1 6.7
v -0.6 1.5 6.1
v -0.6 1.5 6.7
v -0.5 1.5 6.1
v -0.5 1.5 6.7
v 0.2 1.5 6.1
v 0.2 1.5 6.7
v 0.3 1.5 6.1
v 0.3 1.5 6.7
v -0.2 1.8 6.8
v -0.2 1.8 6.9
v -0.1 1.8 6.8
v -0.1 1.8 6.9
v -0.4 2 6.8
v -0.4 2 6.9
v -0.3 2 6.8
v -0.3 2 6.9
v -0.2 2 6.8
v -0.2 2 6.9
v -0.1 2 6.8
v -0.1 2 6.9
v -5.96046e-008 2 6.8
v -5.96046e-008 2 6.9
v 0.1 2 6.8
v 0.1 2 6.9
v -0.6 1.1 6.1
v -0.6 1.1 6.7
v -0.6 1.1 6.8
v -0.6 1.1 6.9
v -0.5 1.1 6
v -0.5 1.1 6.1
v -0.5 1.1 6.3
v -0.5 1.1 6.6
v -0.5 1.1 6.7
v -0.5 1.1 6.8
v -0.5 1.1 6.9
v -0.4 1.1 6.1
v -0.4 1.1 6.3
v -0.4 1.1 6.6
v -0.4 1.1 6.8
v 0.1 1.1 6.1
v 0.1 1.1 6.3
v 0.1 1.1 6.6
v 0.1 1.1 6.8
v 0.2 1.1 6
v 0.2 1.1 6.1
v 0.2 1.1 6.3
v 0.2 1.1 6.6
v 0.2 1.1 6.7
v 0.2 1.1 6.8
v 0.2 1.1 6.9
v 0.3 1.1 6.1
v 0.3 1.1 6.7
v 0.3 1.1 6.8
v 0.3 1.1 6.9
v -0.5 1.2 6.3
v -0.5 1.2 6.6
v -0.4 1.2 6.1
v -0.4 1.2 6.3
v -0.4 1.2 6.6
v -0.4 1.2 6.8
v 0.1 1.2 6.1
v 0.1 1.2 6.3
v 0.1 1.2 6.6
v 0.1 1.2 6.8
v 0.2 1.2 6.3
v 0.2 1.2 6.6
v -0.4 1.3 6.8
v -0.4 1.3 6.9
v -0.3 1.3 6.8
v -0.3 1.3 6.9
v -0.2 1.3 6.8
v -0.2 1.3 6.9
v -0.1 1.3 6.8
v -0.1 1.3 6.9
v -5.96046e-008 1.3 6.8
v -5.96046e-008 1.3 6.9
v 0.1 1.3 6.8
v 0.1 1.3 6.9
v -0.6 1.6 6
v -0.6 1.6 6.7
v -0.5 1.6 6
v -0.5 1.6 6.7
v 0.2 1.6 6
v 0.2 1.6 6.7
v 0.3 1.6 6
v 0.3 1.6 6.7
v -0.2 1.9 6.8
v -0.2 1.9 6.9
v -0.1 1.9 6.8
v -0.1 1.9 6.9
v -0.6 2.1 6.7
v -0.6 2.1 6.8
v -0.5 2.1 6.7
v -0.5 2.1 6.8
v -0.5 2.1 6.9
v 0.2 2.1 6.7
v 0.2 2.1 6.8
v 0.2 2.1 6.9
v 0.3 2.1 6.7
v 0.3 2.1 6.8

# faces
f 7/4/1 3/4/1 2/4/1
f 8/4/1 5/4/1 4/4/1
f 9/2/1 2/2/1 1/2/1
f 9/4/1 8/4/1 7/4/1
f 9/4/1 7/4/1 2/4/1
f 10/4/1 5/4/1 8/4/1
f 10/4/1 8/4/1 9/4/1
f 10/2/1 6/2/1 5/2/1
f 11/2/1 9/2/1 1/2/1
f 12/2/1 9/2/1 11/2/1
f 13/2/1 6/2/1 10/2/1
f 14/2/1 6/2/1 13/2/1
f 17/2/1 16/2/1 15/2/1
f 18/2/1 16/2/1 17/2/1
f 21/3/1 20/3/1 19/3/1
f 22/3/1 20/3/1 21/3/1
f 27/2/1 24/2/1 23/2/1
f 28/2/1 24/2/1 27/2/1
f 29/2/1 26/2/1 25/2/1
f 30/2/1 26/2/1 29/2/1
f 35/3/1 32/3/1 31/3/1
f 36/3/1 32/3/1 35/3/1
f 37/3/1 34/3/1 33/3/1
f 38/3/1 34/3/1 37/3/1
f 43/2/1 40/2/1 39/2/1
f 44/2/1 40/2/1 43/2/1
f 45/2/1 42/2/1 41/2/1
f 46/2/1 42/2/1 45/2/1
f 51/2/1 48/2/1 47/2/1
f 52/2/1 48/2/1 51/2/1
f 53/2/1 50/2/1 49/2/1
f 54/2/1 50/2/1 53/2/1
f 59/2/1 56/2/1 55/2/1
f 60/2/1 56/2/1 59/2/1
f 61/2/1 58/2/1 57/2/1
f 62/2/1 58/2/1 61/2/1
f 67/4/1 64/4/1 63/4/1
f 68/4/1 66/4/1 65/4/1
f 69/4/1 67/4/1 63/4/1
f 70/4/1 67/4/1 69/4/1
f 71/4/1 66/4/1 68/4/1
f 72/4/1 66/4/1 71/4/1
f 77/4/1 74/4/1 73/4/1
f 78/4/1 76/4/1 75/4/1
f 79/4/1 77/4/1 73/4/1
f 79/4/1 78/4/1 77/4/1
f 80/4/1 78/4/1 79/4/1
f 81/4/1 78/4/1 80/4/1
f 82/4/1 78/4/1 81/4/1
f 83/4/1 78/4/1 82/4/1
f 84/4/1 76/4/1 78/4/1
f 84/4/1 78/4/1 83/4/1
f 85/4/1 81/4/1 80/4/1
f 86/4/1 83/4/1 82/4/1
f 87/4/1 85/4/1 80/4/1
f 87/4/1 86/4/1 85/4/1
f 88/4/1 83/4/1 86/4/1
f 88/4/1 86/4/1 87/4/1
f 89/4/1 79/4/1 73/4/1
f 90/4/1 87/4/1 80/4/1
f 91/4/1 87/4/1 90/4/1
f 92/4/1 83/4/1 88/4/1
f 93/4/1 83/4/1 92/4/1
f 94/4/1 76/4/1 84/4/1
f 95/4/1 89/4/1 73/4/1
f 95/4/1 94/4/1 93/4/1
f 95/4/1 91/4/1 90/4/1
f 95/4/1 93/4/1 92/4/1
f 95/4/1 92/4/1 91/4/1
f 95/4/1 90/4/1 89/4/1
f 96/4/1 76/4/1 94/4/1
f 96/4/1 94/4/1 95/4/1
f 97/4/2 98/4/2 101/4/2
f 99/4/2 100/4/2 102/4/2
f 97/4/2 101/4/2 103/4/2
f 103/4/2 101/4/2 104/4/2
f 102/4/2 100/4/2 105/4/2
f 105/4/2 100/4/2 106/4/2
f 107/2/2 108/2/2 111/2/2
f 111/2/2 108/2/2 112/2/2
f 109/2/2 110/2/2 113/2/2
f 113/2/2 110/2/2 114/2/2
f 115/2/2 116/2/2 119/2/2
f 119/2/2 116/2/2 120/2/2
f 117/2/2 118/2/2 121/2/2
f 121/2/2 118/2/2 122/2/2
f 123/2/2 124/2/2 127/2/2
f 127/2/2 124/2/2 128/2/2
f 125/2/2 126/2/2 129/2/2
f 129/2/2 126/2/2 130/2/2
f 131/3/2 132/3/2 135/3/2
f 135/3/2 132/3/2 136/3/2
f 133/3/2 134/3/2 137/3/2
f 137/3/2 134/3/2 138/3/2
f 139/2/2 140/2/2 141/2/2
f 141/2/2 140/2/2 142/2/2
f 143/2/2 144/2/2 147/2/2
f 147/2/2 144/2/2 148/2/2
f 145/2/2 146/2/2 149/2/2
f 149/2/2 146/2/2 150/2/2
f 152/4/2 153/4/2 157/4/2
f 154/4/2 155/4/2 158/4/2
f 151/2/2 152/2/2 159/2/2
f 157/4/2 158/4/2 160/4/2
f 159/2/2 152/2/2 160/2/2
f 152/4/2 157/4/2 160/4/2
f 155/2/2 156/2/2 161/2/2
f 160/4/2 158/4/2 161/4/2
f 158/4/2 155/4/2 161/4/2
f 161/2/2 156/2/2 162/2/2
f 160/4/2 161/4/2 163/4/2
f 163/4/2 161/4/2 164/4/2
f 164/4/2 161/4/2 165/4/2
f 165/4/2 161/4/2 166/4/2
f 166/4/2 161/4/2 167/4/2
f 167/4/2 161/4/2 168/4/2
f 164/4/2 165/4/2 169/4/2
f 166/4/2 167/4/2 170/4/2
f 164/4/2 169/4/2 171/4/2
f 169/4/2 170/4/2 171/4/2
f 170/4/2 167/4/2 172/4/2
f 171/4/2 170/4/2 172/4/2
f 160/4/2 163/4/2 173/4/2
f 164/4/2 171/4/2 174/4/2
f 174/4/2 171/4/2 175/4/2
f 172/4/2 167/4/2 176/4/2
f 176/4/2 167/4/2 177/4/2
f 168/4/2 161/4/2 178/4/2
f 174/4/2 175/4/2 179/4/2
f 177/4/2 178/4/2 179/4/2
f 176/4/2 177/4/2 179/4/2
f 160/4/2 173/4/2 179/4/2
f 175/4/2 176/4/2 179/4/2
f 173/4/2 174/4/2 179/4/2
f 178/4/2 161/4/2 180/4/2
f 179/4/2 178/4/2 180/4/2
f 183/2/3 182/2/3 181/2/3
f 184/2/3 182/2/3 183/2/3
f 185/2/3 183/2/3 181/2/3
f 186/2/3 183/2/3 185/2/3
f 188/2/3 183/2/3 186/2/3
f 189/2/3 183/2/3 188/2/3
f 190/2/3 182/2/3 184/2/3
f 191/2/3 182/2/3 190/2/3
f 193/2/3 189/2/3 188/2/3
f 193/2/3 192/2/3 191/2/3
f 193/2/3 191/2/3 190/2/3
f 193/2/3 190/2/3 189/2/3
f 193/2/3 188/2/3 187/2/3
f 194/2/3 192/2/3 193/2/3
f 195/2/3 193/2/3 187/2/3
f 196/2/3 193/2/3 195/2/3
f 201/2/3 198/2/3 197/2/3
f 202/2/3 198/2/3 201/2/3
f 203/3/3 200/3/3 199/3/3
f 204/3/3 200/3/3 203/3/3
f 207/4/3 206/4/3 205/4/3
f 208/4/3 206/4/3 207/4/3
f 213/2/3 210/2/3 209/2/3
f 214/2/3 210/2/3 213/2/3
f 215/3/3 212/3/3 211/3/3
f 216/3/3 212/3/3 215/3/3
f 221/2/3 218/2/3 217/2/3
f 222/2/3 218/2/3 221/2/3
f 223/3/3 220/3/3 219/3/3
f 224/3/3 220/3/3 223/3/3
f 227/4/3 226/4/3 225/4/3
f 228/4/3 226/4/3 227/4/3
f 233/4/3 230/4/3 229/4/3
f 234/4/3 230/4/3 233/4/3
f 235/4/3 232/4/3 231/4/3
f 236/4/3 232/4/3 235/4/3
f 239/4/3 238/4/3 237/4/3
f 240/4/3 238/4/3 239/4/3
f 241/4/3 238/4/3 240/4/3
f 247/4/3 244/4/3 243/4/3
f 247/4/3 243/4/3 242/4/3
f 248/4/3 244/4/3 247/4/3
f 249/4/3 246/4/3 245/4/3
f 250/4/3 246/4/3 249/4/3
f 255/2/3 252/2/3 251/2/3
f 256/2/3 252/2/3 255/2/3
f 257/2/3 254/2/3 253/2/3
f 258/2/3 254/2/3 257/2/3
f 262/2/3 252/2/3 256/2/3
f 263/2/3 252/2/3 262/2/3
f 265/2/3 260/2/3 259/2/3
f 266/2/3 260/2/3 265/2/3
f 267/2/3 264/2/3 263/2/3
f 267/2/3 262/2/3 261/2/3
f 267/2/3 263/2/3 262/2/3
f 268/2/3 264/2/3 267/2/3
f 269/2/4 270/2/4 273/2/4
f 273/2/4 270/2/4 274/2/4
f 271/2/4 272/2/4 275/2/4
f 275/2/4 272/2/4 276/2/4
f 274/2/4 270/2/4 280/2/4
f 280/2/4 270/2/4 281/2/4
f 277/2/4 278/2/4 283/2/4
f 283/2/4 278/2/4 284/2/4
f 281/2/4 282/2/4 285/2/4
f 279/2/4 280/2/4 285/2/4
f 280/2/4 281/2/4 285/2/4
f 285/2/4 282/2/4 286/2/4
f 287/4/4 288/4/4 289/4/4
f 289/4/4 288/4/4 290/4/4
f 290/4/4 288/4/4 291/4/4
f 293/4/4 294/4/4 297/4/4
f 292/4/4 293/4/4 297/4/4
f 297/4/4 294/4/4 298/4/4
f 295/4/4 296/4/4 299/4/4
f 299/4/4 296/4/4 300/4/4
f 301/4/4 302/4/4 305/4/4
f 305/4/4 302/4/4 306/4/4
f 303/4/4 304/4/4 307/4/4
f 307/4/4 304/4/4 308/4/4
f 309/4/4 310/4/4 311/4/4
f 311/4/4 310/4/4 312/4/4
f 313/2/4 314/2/4 317/2/4
f 317/2/4 314/2/4 318/2/4
f 315/3/4 316/3/4 319/3/4
f 319/3/4 316/3/4 320/3/4
f 321/2/4 322/2/4 325/2/4
f 325/2/4 322/2/4 326/2/4
f 323/3/4 324/3/4 327/3/4
f 327/3/4 324/3/4 328/3/4
f 329/2/4 330/2/4 333/2/4
f 333/2/4 330/2/4 334/2/4
f 331/3/4 332/3/4 335/3/4
f 335/3/4 332/3/4 336/3/4
f 337/4/4 338/4/4 339/4/4
f 339/4/4 338/4/4 340/4/4
f 341/2/4 342/2/4 343/2/4
f 343/2/4 342/2/4 344/2/4
f 341/2/4 343/2/4 345/2/4
f 345/2/4 343/2/4 346/2/4
f 346/2/4 343/2/4 348/2/4
f 348/2/4 343/2/4 349/2/4
f 344/2/4 342/2/4 350/2/4
f 350/2/4 342/2/4 351/2/4
f 348/2/4 349/2/4 353/2/4
f 351/2/4 352/2/4 353/2/4
f 350/2/4 351/2/4 353/2/4
f 349/2/4 350/2/4 353/2/4
f 347/2/4 348/2/4 353/2/4
f 353/2/4 352/2/4 354/2/4
f 347/2/4 353/2/4 355/2/4
f 355/2/4 353/2/4 356/2/4
f 361/2/5 358/2/5 357/2/5
f 362/2/5 358/2/5 361/2/5
f 363/2/5 358/2/5 362/2/5
f 364/2/5 360/2/5 359/2/5
f 365/2/5 360/2/5 364/2/5
f 366/2/5 360/2/5 365/2/5
f 367/4/5 362/4/5 361/4/5
f 368/4/5 362/4/5 367/4/5
f 369/4/5 366/4/5 365/4/5
f 370/4/5 366/4/5 369/4/5
f 375/4/5 372/4/5 371/4/5
f 376/4/5 372/4/5 375/4/5
f 379/4/5 374/4/5 373/4/5
f 380/4/5 374/4/5 379/4/5
f 381/2/5 377/2/5 376/2/5
f 381/2/5 376/2/5 375/2/5
f 382/2/5 377/2/5 381/2/5
f 383/2/5 380/2/5 379/2/5
f 383/2/5 379/2/5 378/2/5
f 384/2/5 380/2/5 383/2/5
f 388/2/5 386/2/5 385/2/5
f 389/2/5 386/2/5 388/2/5
f 391/2/5 388/2/5 387/2/5
f 391/2/5 390/2/5 389/2/5
f 391/2/5 389/2/5 388/2/5
f 392/2/5 390/2/5 391/2/5
f 393/2/5 390/2/5 392/2/5
f 394/2/5 390/2/5 393/2/5
f 395/2/5 393/2/5 392/2/5
f 396/2/5 393/2/5 395/2/5
f 400/2/5 398/2/5 397/2/5
f 401/2/5 398/2/5 400/2/5
f 402/2/5 398/2/5 401/2/5
f 403/2/5 398/2/5 402/2/5
f 406/4/5 400/4/5 399/4/5
f 406/4/5 401/4/5 400/4/5
f 407/4/5 401/4/5 406/4/5
f 408/4/5 403/4/5 402/4/5
f 408/4/5 404/4/5 403/4/5
f 409/4/5 404/4/5 408/4/5
f 411/4/5 406/4/5 405/4/5
f 412/4/5 406/4/5 411/4/5
f 415/4/5 410/4/5 409/4/5
f 416/4/5 410/4/5 415/4/5
f 417/4/5 413/4/5 412/4/5
f 418/4/5 413/4/5 417/4/5
f 419/4/5 413/4/5 418/4/5
f 420/4/5 415/4/5 414/4/5
f 421/4/5 415/4/5 420/4/5
f 422/4/5 415/4/5 421/4/5
f 423/2/5 419/2/5 418/2/5
f 423/2/5 421/2/5 420/2/5
f 423/2/5 420/2/5 419/2/5
f 424/2/5 421/2/5 423/2/5
f 427/2/5 426/2/5 425/2/5
f 428/2/5 426/2/5 427/2/5
f 431/2/5 430/2/5 429/2/5
f 432/2/5 430/2/5 431/2/5
f 435/4/5 434/4/5 433/4/5
f 436/4/5 434/4/5 435/4/5
f 439/4/5 438/4/5 437/4/5
f 440/4/5 438/4/5 439/4/5
f 443/4/5 442/4/5 441/4/5
f 444/4/5 442/4/5 443/4/5
f 447/4/5 446/4/5 445/4/5
f 448/4/5 446/4/5 447/4/5
f 449/2/6 450/2/6 454/2/6
f 454/2/6 450/2/6 455/2/6
f 455/2/6 450/2/6 456/2/6
f 456/2/6 450/2/6 457/2/6
f 451/2/6 452/2/6 458/2/6
f 458/2/6 452/2/6 459/2/6
f 453/4/6 454/4/6 460/4/6
f 454/4/6 455/4/6 460/4/6
f 460/4/6 455/4/6 461/4/6
f 456/4/6 457/4/6 462/4/6
f 457/4/6 458/4/6 462/4/6
f 462/4/6 458/4/6 463/4/6
f 453/4/6 460/4/6 464/4/6
f 453/4/6 464/4/6 468/4/6
f 464/4/6 465/4/6 468/4/6
f 468/4/6 465/4/6 469/4/6
f 469/4/6 465/4/6 470/4/6
f 466/4/6 467/4/6 471/4/6
f 471/4/6 467/4/6 472/4/6
f 472/4/6 467/4/6 473/4/6
f 469/2/6 470/2/6 475/2/6
f 471/2/6 472/2/6 475/2/6
f 470/2/6 471/2/6 475/2/6
f 475/2/6 472/2/6 476/2/6
f 473/2/6 474/2/6 477/2/6
f 477/2/6 474/2/6 478/2/6
f 479/3/6 480/3/6 482/3/6
f 482/3/6 480/3/6 483/3/6
f 481/3/6 482/3/6 485/3/6
f 483/3/6 484/3/6 485/3/6
f 482/3/6 483/3/6 485/3/6
f 485/3/6 484/3/6 486/3/6
f 486/3/6 484/3/6 487/3/6
f 487/3/6 484/3/6 488/3/6
f 486/3/6 487/3/6 489/3/6
f 489/3/6 487/3/6 490/3/6
f 491/4/6 492/4/6 493/4/6
f 493/4/6 492/4/6 494/4/6
f 495/4/6 496/4/6 497/4/6
f 497/4/6 496/4/6 498/4/6
f 499/4/6 500/4/6 501/4/6
f 501/4/6 500/4/6 502/4/6
f 503/2/6 504/2/6 505/2/6
f 505/2/6 504/2/6 506/2/6
f 507/2/6 508/2/6 509/2/6
f 509/2/6 508/2/6 510/2/6
f 511/4/6 512/4/6 513/4/6
f 513/4/6 512/4/6 514/4/6
f 515/2/6 516/2/6 517/2/6
f 517/2/6 516/2/6 518/2/6
f 518/4/6 519/4/6 521/4/6
f 521/4/6 519/4/6 522/4/6
f 520/2/6 521/2/6 523/2/6
f 523/2/6 521/2/6 524/2/6
